# xmcd
# Track frame offsets:
# 150
# 6953
# 19267
# 31677
# 47991
# 59624
# 68510
# 81187
# 94579
# 106347
# 112689
# 125807
# 133682
# 141362
# 149163
# 157785
# 165378
# 171838
# 184263
# 194306
# 203029
# 214512
#
# Disc length: 2999 seconds
# Revision: 0
# Processed by: cddbd v1.5PL3 Copyright (c) Steve Scherf et al.
# Submitted via: VisiTrax 2.9.9.202 - For more info visit www.synapsa.com
#
DISCID=340bb516
DTITLE=The Oak Ridge Boys - 22 Country Gospel Greats
DYEAR=1900
DGENRE=Gospel
TTITLE0=I Know
TTITLE1=Because Of Him
TTITLE2=The Old Country Church
TTITLE3=Farther Along
TTITLE4=When I Lay My Burdons Down
TTITLE5=I'll Live In Glory
TTITLE6=You'll Never Walk Alone
TTITLE7=Lead Me To Calvary
TTITLE8=Without God
TTITLE9=The Christina Way
TTITLE10=Hide Thou Me
TTITLE11=I Asked The Lord
TTITLE12=Someday
TTITLE13=I Don't Mind My Journey
TTITLE14=Day Of Rejoicing
TTITLE15=River Of Life
TTITLE16=Victory Is Coming
TTITLE17=Dear Jesus, Abide With Me
TTITLE18=Wonderful Saviour
TTITLE19=One Of These Mornings
TTITLE20=Time Has Made A Change (In Me)
TTITLE21=I'll Wake Up On The Other Side
EXTD=
EXTT0=
EXTT1=
EXTT2=
EXTT3=
EXTT4=
EXTT5=
EXTT6=
EXTT7=
EXTT8=
EXTT9=
EXTT10=
EXTT11=
EXTT12=
EXTT13=
EXTT14=
EXTT15=
EXTT16=
EXTT17=
EXTT18=
EXTT19=
EXTT20=
EXTT21=
PLAYORDER=
